<?xml version="1.0"?>
<svg xmlns="http://www.w3.org/2000/svg" xmlns:xlink="http://www.w3.org/1999/xlink" version="1.1" id="Capa_1" x="0px" y="0px" viewBox="0 0 512 512" style="enable-background:new 0 0 512 512;" xml:space="preserve" width="512px" height="512px"><g><g>
	<g>
		<g>
			<path d="M179.2,196.267c-4.719,0-8.533,3.823-8.533,8.533v54.528l-35.354-58.923c-0.025-0.042-0.055-0.078-0.08-0.12     c-0.101-0.161-0.206-0.318-0.316-0.471c-0.063-0.088-0.127-0.174-0.193-0.258c-0.099-0.126-0.201-0.249-0.306-0.37     c-0.086-0.099-0.173-0.196-0.263-0.29c-0.094-0.098-0.192-0.193-0.291-0.287c-0.106-0.101-0.213-0.199-0.323-0.294     c-0.096-0.082-0.195-0.16-0.294-0.238c-0.117-0.091-0.235-0.181-0.356-0.266c-0.107-0.075-0.217-0.145-0.327-0.215     c-0.118-0.075-0.237-0.149-0.358-0.218c-0.124-0.07-0.25-0.135-0.378-0.199c-0.114-0.057-0.229-0.114-0.345-0.166     c-0.138-0.062-0.279-0.118-0.421-0.172c-0.114-0.044-0.228-0.087-0.344-0.126c-0.143-0.048-0.289-0.091-0.435-0.131     c-0.124-0.034-0.248-0.067-0.373-0.096c-0.137-0.031-0.275-0.058-0.415-0.083c-0.144-0.026-0.289-0.048-0.434-0.066     c-0.123-0.015-0.246-0.028-0.371-0.038c-0.167-0.014-0.335-0.022-0.504-0.025c-0.062-0.001-0.123-0.009-0.185-0.009     c-0.051,0-0.101,0.007-0.151,0.008c-0.17,0.003-0.34,0.013-0.511,0.026c-0.12,0.009-0.239,0.019-0.358,0.033     c-0.148,0.018-0.295,0.042-0.442,0.067c-0.141,0.024-0.281,0.05-0.419,0.081c-0.118,0.027-0.234,0.058-0.352,0.09     c-0.165,0.045-0.329,0.092-0.489,0.146c-0.09,0.03-0.178,0.064-0.267,0.098c-0.184,0.069-0.365,0.142-0.542,0.222     c-0.072,0.033-0.143,0.068-0.215,0.104c-0.187,0.092-0.37,0.189-0.549,0.293c-0.032,0.019-0.066,0.033-0.099,0.053     c-0.04,0.024-0.076,0.053-0.115,0.077c-0.164,0.103-0.325,0.21-0.481,0.323c-0.085,0.061-0.168,0.123-0.25,0.187     c-0.13,0.101-0.256,0.206-0.38,0.315c-0.095,0.083-0.189,0.168-0.28,0.254c-0.102,0.098-0.201,0.2-0.299,0.303     c-0.096,0.102-0.191,0.204-0.282,0.31c-0.087,0.101-0.169,0.206-0.251,0.311c-0.087,0.111-0.172,0.223-0.253,0.338     c-0.08,0.114-0.155,0.231-0.229,0.348c-0.07,0.111-0.14,0.222-0.204,0.336c-0.075,0.132-0.144,0.267-0.212,0.403     c-0.053,0.106-0.105,0.211-0.154,0.319c-0.066,0.147-0.125,0.297-0.183,0.448c-0.04,0.105-0.08,0.209-0.115,0.315     c-0.051,0.152-0.096,0.306-0.139,0.462c-0.032,0.115-0.062,0.23-0.089,0.346c-0.033,0.144-0.062,0.29-0.087,0.437     c-0.024,0.138-0.046,0.276-0.063,0.415c-0.016,0.127-0.029,0.254-0.039,0.383c-0.013,0.165-0.021,0.33-0.025,0.496     c-0.001,0.062-0.009,0.123-0.009,0.185v85.333c0,4.71,3.814,8.533,8.533,8.533s8.533-3.823,8.533-8.533v-54.528l35.354,58.923     c0.019,0.031,0.042,0.057,0.061,0.088c0.162,0.261,0.336,0.514,0.524,0.755c0.033,0.043,0.064,0.089,0.097,0.131     c0.208,0.257,0.431,0.5,0.667,0.731c0.072,0.07,0.148,0.134,0.222,0.202c0.174,0.159,0.353,0.31,0.54,0.454     c0.087,0.067,0.174,0.134,0.264,0.198c0.227,0.161,0.461,0.312,0.704,0.451c0.039,0.022,0.076,0.048,0.115,0.07     c0.295,0.163,0.602,0.306,0.917,0.434c0.048,0.02,0.098,0.035,0.147,0.054c0.265,0.102,0.535,0.19,0.812,0.265     c0.075,0.02,0.149,0.039,0.224,0.058c0.26,0.063,0.525,0.114,0.794,0.152c0.074,0.011,0.146,0.025,0.22,0.034     c0.331,0.039,0.665,0.064,1.006,0.064c0.002,0,0.003,0,0.005,0c0.001,0,0.003,0,0.004,0c0.009,0,0.018-0.002,0.027-0.002     c0.336-0.001,0.665-0.027,0.99-0.066c0.096-0.012,0.191-0.029,0.287-0.044c0.263-0.041,0.521-0.093,0.776-0.157     c0.085-0.021,0.169-0.041,0.253-0.065c0.701-0.2,1.362-0.487,1.977-0.848c0.025-0.015,0.051-0.024,0.076-0.039     c0.04-0.024,0.076-0.053,0.115-0.077c0.164-0.103,0.325-0.21,0.481-0.323c0.085-0.061,0.168-0.123,0.25-0.187     c0.13-0.101,0.256-0.206,0.38-0.315c0.095-0.083,0.189-0.168,0.28-0.255c0.102-0.098,0.201-0.199,0.298-0.302     c0.096-0.102,0.191-0.204,0.282-0.31c0.087-0.101,0.169-0.206,0.251-0.311c0.087-0.111,0.172-0.223,0.252-0.338     c0.08-0.114,0.155-0.231,0.229-0.349c0.07-0.111,0.139-0.222,0.204-0.336c0.075-0.132,0.144-0.267,0.212-0.403     c0.053-0.106,0.105-0.211,0.154-0.319c0.066-0.147,0.125-0.297,0.183-0.448c0.04-0.105,0.08-0.21,0.115-0.316     c0.051-0.152,0.096-0.306,0.139-0.461c0.032-0.115,0.062-0.231,0.089-0.348c0.033-0.144,0.061-0.289,0.087-0.436     c0.024-0.138,0.046-0.276,0.063-0.416c0.016-0.127,0.029-0.254,0.039-0.383c0.013-0.165,0.021-0.33,0.025-0.496     c0.001-0.062,0.009-0.123,0.009-0.185V204.8C187.733,200.09,183.919,196.267,179.2,196.267z" data-original="#000000" class="active-path" data-old_color="#000000" fill="#666666"/>
			<path d="M331.283,294.979c0.207-0.301,0.393-0.614,0.56-0.938c0.053-0.104,0.102-0.21,0.151-0.316     c0.164-0.352,0.311-0.712,0.426-1.084c0.006-0.019,0.016-0.035,0.021-0.054l17.425-58.084l17.425,58.084     c0.006,0.019,0.016,0.035,0.021,0.054c0.115,0.372,0.262,0.732,0.425,1.084c0.049,0.107,0.098,0.213,0.152,0.317     c0.167,0.324,0.353,0.637,0.56,0.937c0.066,0.096,0.137,0.186,0.206,0.279c0.208,0.278,0.43,0.546,0.672,0.798     c0.03,0.031,0.057,0.067,0.088,0.098c0.279,0.281,0.585,0.537,0.903,0.778c0.06,0.045,0.118,0.091,0.179,0.134     c0.325,0.234,0.667,0.448,1.029,0.637c0.034,0.018,0.07,0.032,0.104,0.049c0.335,0.169,0.686,0.315,1.05,0.441     c0.059,0.02,0.116,0.044,0.176,0.063c0.054,0.018,0.105,0.041,0.16,0.057c0.229,0.067,0.457,0.102,0.685,0.15     c0.16,0.034,0.316,0.08,0.478,0.105c0.43,0.066,0.859,0.104,1.286,0.104s0.856-0.038,1.286-0.104     c0.162-0.025,0.318-0.07,0.477-0.104c0.229-0.048,0.457-0.083,0.686-0.15c0.055-0.016,0.106-0.04,0.16-0.057     c0.059-0.019,0.117-0.042,0.175-0.063c0.364-0.126,0.715-0.272,1.051-0.441c0.034-0.017,0.069-0.031,0.103-0.049     c0.362-0.188,0.704-0.403,1.029-0.637c0.061-0.043,0.119-0.089,0.179-0.134c0.319-0.242,0.625-0.498,0.904-0.779     c0.03-0.031,0.057-0.065,0.087-0.096c0.242-0.252,0.465-0.521,0.674-0.799c0.07-0.092,0.14-0.183,0.206-0.278     c0.207-0.301,0.393-0.614,0.56-0.938c0.053-0.104,0.102-0.21,0.151-0.316c0.164-0.352,0.311-0.712,0.426-1.084     c0.006-0.019,0.016-0.035,0.021-0.054l25.6-85.333c1.348-4.514-1.212-9.276-5.726-10.624c-4.531-1.374-9.276,1.203-10.624,5.717     l-17.425,58.084l-17.425-58.084c-0.008-0.027-0.019-0.051-0.027-0.077c-0.006-0.018-0.013-0.035-0.019-0.053     c-0.597-1.886-1.789-3.42-3.311-4.457c-0.017-0.012-0.033-0.026-0.051-0.037c-0.233-0.156-0.472-0.301-0.719-0.434     c-0.007-0.003-0.014-0.006-0.02-0.01c-0.242-0.129-0.49-0.246-0.743-0.352c-0.043-0.018-0.089-0.031-0.133-0.048     c-0.222-0.088-0.447-0.17-0.676-0.24c-0.009-0.003-0.017-0.007-0.026-0.009c-0.074-0.022-0.148-0.035-0.221-0.055     c-0.18-0.049-0.36-0.098-0.544-0.135c-0.202-0.042-0.404-0.069-0.606-0.096c-0.06-0.008-0.119-0.019-0.18-0.026     c-3.979-0.44-7.79,1.978-9.029,5.903c-0.005,0.016-0.012,0.032-0.017,0.048c-0.008,0.026-0.02,0.051-0.028,0.078l-17.425,58.084     l-17.425-58.084c-1.348-4.514-6.101-7.066-10.624-5.717c-4.514,1.348-7.074,6.11-5.726,10.624l25.6,85.333     c0.006,0.019,0.016,0.035,0.021,0.054c0.115,0.372,0.262,0.732,0.425,1.084c0.049,0.107,0.098,0.213,0.152,0.317     c0.167,0.324,0.353,0.637,0.56,0.937c0.066,0.096,0.137,0.186,0.206,0.279c0.208,0.278,0.43,0.546,0.672,0.798     c0.03,0.031,0.057,0.067,0.088,0.098c0.279,0.281,0.585,0.537,0.903,0.778c0.06,0.045,0.118,0.091,0.179,0.134     c0.325,0.234,0.667,0.448,1.029,0.637c0.034,0.018,0.07,0.032,0.104,0.049c0.335,0.169,0.686,0.315,1.05,0.441     c0.059,0.02,0.116,0.044,0.176,0.063c0.054,0.018,0.105,0.041,0.16,0.057c0.229,0.067,0.457,0.102,0.685,0.15     c0.16,0.034,0.316,0.08,0.478,0.105c0.43,0.066,0.859,0.104,1.286,0.104s0.856-0.038,1.286-0.104     c0.162-0.025,0.318-0.07,0.477-0.104c0.229-0.048,0.457-0.083,0.686-0.15c0.055-0.016,0.106-0.04,0.16-0.057     c0.059-0.019,0.117-0.042,0.175-0.063c0.364-0.126,0.715-0.272,1.051-0.441c0.034-0.017,0.069-0.031,0.103-0.049     c0.362-0.188,0.704-0.403,1.029-0.637c0.061-0.043,0.119-0.089,0.178-0.134c0.319-0.242,0.625-0.498,0.904-0.779     c0.03-0.031,0.057-0.065,0.087-0.096c0.242-0.252,0.465-0.521,0.674-0.799C331.147,295.165,331.217,295.075,331.283,294.979z" data-original="#000000" class="active-path" data-old_color="#000000" fill="#666666"/>
			<path d="M256,0C114.842,0,0,114.842,0,256s114.842,256,256,256s256-114.842,256-256S397.158,0,256,0z M256,494.933     C124.254,494.933,17.067,387.746,17.067,256S124.254,17.067,256,17.067S494.933,124.254,494.933,256S387.746,494.933,256,494.933     z" data-original="#000000" class="active-path" data-old_color="#000000" fill="#666666"/>
			<path d="M264.534,59.728c0-4.71-3.823-8.525-8.533-8.525h-0.009c-16.802,0.009-33.655,2.15-50.116,6.349     c-4.565,1.161-7.322,5.811-6.161,10.385c0.981,3.857,4.454,6.417,8.26,6.417c0.7,0,1.408-0.085,2.116-0.265     c15.095-3.849,30.532-5.811,45.918-5.82C260.72,68.262,264.534,64.439,264.534,59.728z" data-original="#000000" class="active-path" data-old_color="#000000" fill="#666666"/>
			<path d="M174.847,86.982c4.241-2.048,6.025-7.151,3.977-11.392c-2.039-4.241-7.151-6.025-11.392-3.985     c-40.235,19.413-73.464,51.61-93.56,90.641c-2.159,4.19-0.512,9.336,3.678,11.494c1.246,0.64,2.586,0.947,3.9,0.947     c3.089,0,6.084-1.69,7.595-4.625C107.459,134.299,137.932,104.791,174.847,86.982z" data-original="#000000" class="active-path" data-old_color="#000000" fill="#666666"/>
			<path d="M69.214,194.961c-4.531-1.254-9.25,1.391-10.505,5.931C53.734,218.743,51.209,237.286,51.2,256     c0,4.71,3.814,8.533,8.533,8.533c4.71,0,8.533-3.814,8.533-8.533c0.009-17.169,2.321-34.167,6.878-50.534     C76.407,200.926,73.754,196.224,69.214,194.961z" data-original="#000000" class="active-path" data-old_color="#000000" fill="#666666"/>
			<path d="M304.879,437.12c-16,4.378-32.452,6.605-48.888,6.613c-4.71,0-8.525,3.823-8.525,8.533c0,4.719,3.823,8.533,8.533,8.533     h0.009c17.946-0.009,35.9-2.441,53.367-7.219c4.548-1.246,7.228-5.939,5.982-10.479     C314.112,438.545,309.376,435.883,304.879,437.12z" data-original="#000000" class="active-path" data-old_color="#000000" fill="#666666"/>
			<path d="M437.623,331.003c-4.301-1.997-9.353-0.128-11.332,4.139c-17.178,36.881-46.857,67.797-83.567,87.04     c-4.164,2.193-5.786,7.347-3.593,11.52c1.527,2.91,4.497,4.574,7.569,4.574c1.331,0,2.688-0.316,3.959-0.973     c39.996-20.983,72.354-54.699,91.102-94.959C443.75,338.069,441.898,333,437.623,331.003z" data-original="#000000" class="active-path" data-old_color="#000000" fill="#666666"/>
			<path d="M452.272,247.467h-0.009c-4.702,0-8.533,3.814-8.533,8.533c-0.008,14.583-1.672,29.073-4.958,43.051     c-1.075,4.591,1.766,9.182,6.366,10.266c0.657,0.154,1.306,0.222,1.954,0.222c3.866,0,7.373-2.654,8.303-6.579     c3.584-15.266,5.393-31.061,5.402-46.95C460.797,251.29,456.982,247.475,452.272,247.467z" data-original="#000000" class="active-path" data-old_color="#000000" fill="#666666"/>
			<path d="M264.533,290.133c0-4.71-3.814-8.533-8.533-8.533h-25.6V256H256c4.719,0,8.533-3.823,8.533-8.533     s-3.814-8.533-8.533-8.533h-25.6v-25.6H256c4.719,0,8.533-3.823,8.533-8.533c0-4.71-3.814-8.533-8.533-8.533h-34.133     c-4.719,0-8.533,3.823-8.533,8.533v85.333c0,4.71,3.814,8.533,8.533,8.533H256C260.719,298.667,264.533,294.844,264.533,290.133z     " data-original="#000000" class="active-path" data-old_color="#000000" fill="#666666"/>
		</g>
	</g>
</g></g> </svg>
