<svg id="Capa_1" data-name="Capa 1" xmlns="http://www.w3.org/2000/svg" viewBox="0 0 463.9 413.71">
  <title>icon-home</title>
  <path d="M484.38,240.68,398.73,167.6A9.49,9.49,0,0,0,399,166V70.46A10.62,10.62,0,0,0,388.74,60H341c-5.52,0-10,4.93-10,10.46V110L262.5,51.68a10,10,0,0,0-13,0l-221.9,189a10,10,0,0,0,12.76,15.41l.21-.18L256,72.43l77.09,65.68,46.07,39.19,92.25,78.6a10,10,0,1,0,13-15.22ZM379,80v70.7l-28-23.64V80Z" transform="translate(-24 -49.29)" fill="#666"/>
  <path d="M440.33,260.85l-28.13-24L262.49,109a10,10,0,0,0-13,0L99.8,236.86l-28.13,24A10,10,0,0,0,70.55,275h0a9.79,9.79,0,0,0,13.81,1.23l.13-.11L97,265.26V452.71A10.54,10.54,0,0,0,107.33,463H404.67A10.54,10.54,0,0,0,415,452.71V265.26l12.51,10.81a9.85,9.85,0,0,0,14-1.12,10,10,0,0,0-1.15-14.09ZM296,443H216V335h80Zm20,0V325.29c0-5.52-4.06-10.29-9.58-10.29H205.58c-5.52,0-9.58,4.77-9.58,10.29V443H117V248.2L256,129.79,395,248.2V443Z" transform="translate(-24 -49.29)" fill="#666"/>
</svg>
